<svg width="226" height="232" viewBox="0 0 226 232" fill="none" xmlns="http://www.w3.org/2000/svg">
<path d="M89.1476 14.613C83.2116 -0.979898 53.8448 -8.67997 58.691 22.3669C59.4856 27.4575 59.5655 36.2232 58.691 46.8927C57.8899 56.6667 42.2068 62.0147 37.3926 74.6437C29.8426 94.4497 58.0716 108.255 53.5794 118.666C47.6956 132.303 29.68 138.22 19.715 145.68C10.334 152.704 4.35863 163.973 2.06431 175.559C-1.9608 195.885 5.34378 217.186 25.4655 218.246C35.5384 218.777 48.8231 214.235 65.5064 201.959C72.9656 196.471 79.5429 191.947 85.3885 188.29C100.434 178.876 96.3891 201.143 114.28 201.959C124.474 202.424 135.121 183.201 143.181 193.455C148.912 200.746 155.488 209.592 164.88 218.687C181.374 234.659 201.996 237.011 204.913 214.215C206.29 203.454 203.722 187.09 194.911 163.909C189.273 149.074 203.297 149.597 204.913 130.588C206.529 111.578 193.315 102.811 202.881 94.9433L203.072 94.7858C210.363 88.7895 218.139 82.3943 222.386 70.1108C226.044 59.5298 225.694 49.0501 222.386 40.9975C218.845 32.3794 211.915 26.5413 202.881 26.3342C193.816 26.1264 182.634 31.5877 170.631 45.5982C162.717 54.8356 157.358 33.3416 143.181 35.5388C129.003 37.736 127.033 58.475 118.539 52.4599C103.786 42.0111 96.0997 32.8751 89.1476 14.613Z" stroke="white" stroke-opacity="0.75" stroke-width="0.85575"/>
<path d="M117.786 99.6675C116.882 97.2737 112.672 97.902 112.459 100.496C112.216 103.45 113.695 107.299 113.524 110.26C113.194 115.977 111.194 117.604 107.211 120.617C105.783 121.696 104.873 123.426 104.524 125.204C103.912 128.325 105.023 131.595 108.086 131.757C109.619 131.839 111.641 131.142 114.18 129.257C115.315 128.414 116.316 127.72 117.205 127.159C121.078 124.519 124.683 126.587 126.001 127.951C126.873 129.071 127.874 130.429 129.303 131.825C131.814 134.277 135.615 133.956 135.396 131.139C135.087 127.159 128.356 112.302 135.396 109.712C138.666 108.509 138.559 105.783 138.055 104.547C137.516 103.224 136.462 102.327 135.087 102.296C133.707 102.264 131.422 104.547 130.179 105.253C125.589 107.86 121.494 109.208 117.786 99.6675Z" stroke="white" stroke-opacity="0.75" stroke-width="0.85575"/>
<path d="M63.6025 29.1573C59.3015 0.893843 86.1379 7.93934 91.58 22.2341C98.2428 39.7101 105.609 47.9006 119.45 57.1718C127.234 62.6126 129.108 43.6765 142.089 41.6184C155.071 39.5602 160.03 59.065 167.293 50.6621C178.339 37.918 188.61 33.03 196.907 33.3385C205.149 33.5826 211.469 38.9837 214.662 46.9135C217.643 54.329 217.889 63.9523 214.412 73.6333C209.874 85.1407 203.321 92.3033 196.665 98.1598C187.971 105.445 199.913 113.492 198.33 130.799C196.747 148.106 183.843 147.582 188.859 160.968C196.746 181.932 198.992 196.699 197.66 206.388C194.946 227.066 176.07 224.849 160.922 210.285C152.235 201.978 146.081 193.942 140.691 187.428C133.276 178.15 123.498 195.702 114.119 195.355C97.7254 194.698 101.302 174.497 87.5203 183.098C82.1093 186.461 76.0438 190.591 69.1872 195.581C53.729 206.735 41.5404 210.572 32.4311 209.808C14.1387 208.763 7.521 189.304 11.2242 170.739C13.3527 160.127 18.8427 149.81 27.4431 143.372C36.8723 136.312 53.4463 130.782 58.8297 117.859C62.9249 108.253 37.2102 95.5395 44.0509 77.3661C48.4023 65.7225 62.6438 60.7033 63.3838 51.6775C64.1892 41.8531 64.217 33.8053 63.6025 29.1573Z" stroke="white" stroke-opacity="0.75" stroke-width="0.85575"/>
<path d="M68.7293 36.2339C64.9798 10.8465 89.2466 17.2143 94.1869 30.1637C100.551 46.7946 107.586 54.0131 120.495 62.0768C127.559 66.9255 129.332 49.8545 141.098 47.9422C152.865 46.03 157.418 63.4818 164.02 55.9409C174.093 44.5049 183.437 40.2062 190.953 40.614C198.393 40.8944 204.092 45.8404 206.932 53.0559C209.582 59.8097 209.724 68.5448 206.433 77.294C201.647 87.8795 196.426 95.7794 190.47 101.43C182.661 108.109 193.313 115.409 191.766 130.957C190.218 146.504 178.453 145.981 182.84 157.875C189.791 176.554 191.711 189.674 190.425 198.26C187.918 216.754 170.817 214.679 157.036 201.571C149.068 194.079 143.346 186.88 138.303 181.163C131.545 172.891 122.649 188.714 114.1 188.486C99.2271 187.99 102.33 169.921 89.8323 177.681C84.8637 180.74 79.3191 184.461 73.075 188.936C58.8644 198.932 47.7898 202.053 39.6573 201.058C23.221 200.032 17.3 182.479 20.6759 165.737C22.6354 156.133 27.6319 146.804 35.4393 140.971C44.319 134.336 59.427 129.211 64.3024 117.046C67.9945 108.277 44.8318 96.6963 50.9531 80.2154C54.8353 69.5956 67.6145 64.922 68.2922 56.6742C69.0273 47.7274 69.1629 40.4239 68.7293 36.2339Z" stroke="white" stroke-opacity="0.75" stroke-width="0.85575"/>
<path d="M73.6413 43.0305C70.4376 20.4266 92.1722 26.1398 96.6182 37.7909C102.693 53.6355 109.408 59.9084 121.405 66.7947C127.76 71.0691 129.435 55.8009 140.005 54.0277C150.575 52.2546 154.728 67.7172 160.679 61.0109C169.795 50.8412 178.227 47.1159 184.975 47.6243C191.622 47.9417 196.711 52.4506 199.202 58.9779C201.524 65.0944 201.563 72.973 198.453 80.8223C193.411 90.524 189.514 99.1867 184.249 104.651C177.313 110.748 186.691 117.329 185.177 131.173C183.662 145.017 173.018 144.493 176.782 154.938C182.808 171.401 184.405 182.923 183.164 190.438C180.86 206.814 165.507 204.874 153.072 193.174C145.81 186.47 140.51 180.082 135.808 175.142C129.696 167.844 121.669 181.997 113.936 181.887C100.561 181.549 103.195 165.547 91.9617 172.494C87.4279 175.259 82.3955 178.586 76.7543 182.562C63.7692 191.437 53.7915 193.853 46.6234 192.624C32.0179 191.614 26.7844 175.902 29.8383 160.922C31.6318 152.292 36.1427 143.916 43.169 138.668C51.5131 132.434 65.1786 127.696 69.5533 116.245C72.848 108.281 52.2017 97.7919 57.613 82.9437C61.032 73.3094 72.3684 68.9647 72.9849 61.4651C73.6509 53.3635 73.8945 46.7779 73.6413 43.0305Z" stroke="white" stroke-opacity="0.75" stroke-width="0.85575"/>
<path d="M78.7686 49.8228C76.1165 30.0033 95.2803 35.0617 99.2242 45.4144C104.999 60.474 111.383 65.8009 122.446 71.5088C128.08 75.2086 129.656 61.7438 139.01 60.1097C148.364 58.4755 152.11 71.9483 157.4 66.0767C165.542 57.1738 173.046 54.0222 179.014 54.6315C184.858 54.9861 189.326 59.0578 191.465 64.8968C193.455 70.376 193.39 77.398 190.466 84.3472C185.178 93.1652 182.612 102.594 178.047 107.873C171.996 113.387 180.084 119.248 178.605 131.388C177.126 143.529 167.623 143.004 170.756 152C175.846 166.246 177.118 176.169 175.924 182.612C173.827 196.87 160.249 195.064 149.183 184.772C142.639 178.857 137.771 173.28 133.418 169.117C127.962 162.795 120.819 175.276 113.915 175.284C102.062 175.105 104.223 161.17 94.2738 167.304C90.1827 169.775 85.6715 172.708 80.6432 176.186C68.9066 183.938 60.0435 185.648 53.8526 184.186C41.1039 183.191 36.5672 169.321 39.2936 156.104C40.918 148.447 44.9352 141.024 51.168 136.361C58.9617 130.528 71.1604 126.176 75.0269 115.439C77.9183 108.28 59.825 98.8829 64.5167 85.6676C67.4664 77.0188 77.3399 73.0028 77.8941 66.2515C78.4897 58.9952 78.841 53.1275 78.7686 49.8228Z" stroke="white" stroke-opacity="0.75" stroke-width="0.85575"/>
<path d="M83.8949 56.9351C81.7941 39.9442 98.3865 44.3365 101.828 53.3675C107.303 67.6079 113.354 71.977 123.482 76.494C128.396 79.611 129.871 67.9797 138.009 66.4882C146.148 64.9967 149.486 76.4496 154.114 71.4258C161.282 63.8097 167.859 61.2387 173.046 61.9474C178.086 62.3384 181.934 65.9638 183.72 71.1014C185.379 75.9311 185.21 82.0807 182.473 88.1142C176.94 96.0287 175.703 106.201 171.838 111.283C166.672 116.202 173.47 121.33 172.027 131.74C170.585 142.15 162.221 141.625 164.725 149.152C168.88 161.149 169.826 169.45 168.679 174.807C166.789 186.915 154.987 185.248 145.289 176.388C139.465 171.274 135.03 166.52 131.025 163.143C126.227 157.812 119.967 168.594 113.893 168.72C103.562 168.699 105.25 156.863 96.5856 162.17C92.9376 164.341 88.9478 166.874 84.5327 169.845C74.0455 176.458 66.2972 177.459 61.0834 175.766C50.1916 174.788 46.3518 162.792 48.7505 151.367C50.2056 144.701 53.729 138.248 59.168 134.18C66.4104 128.76 77.1418 124.806 80.4997 114.805C82.9878 108.469 67.4478 100.184 71.42 88.6311C73.9004 80.9871 82.311 77.3088 82.8029 71.3209C83.3281 64.9261 83.7867 59.7895 83.8949 56.9351Z" stroke="white" stroke-opacity="0.75" stroke-width="0.85575"/>
<path d="M88.7971 63.7294C87.2432 49.5243 101.299 53.2616 104.245 60.9937C109.431 74.4505 115.162 77.8727 124.377 81.2104C128.579 83.7525 129.957 73.9253 136.897 72.5728C143.836 71.2202 146.774 80.682 150.75 76.4935C156.96 70.1448 162.622 68.148 167.039 68.9579C171.286 69.3862 174.522 72.5744 175.958 77.0236C177.289 81.2158 177.017 86.5086 174.461 91.6415C168.671 98.6724 168.761 109.613 165.588 114.511C161.297 118.847 166.819 123.255 165.409 131.961C163.999 140.666 156.759 140.14 158.639 146.218C161.867 155.995 162.489 162.696 161.387 166.981C159.7 176.969 149.648 175.437 141.3 167.986C136.182 163.66 132.171 159.718 128.507 157.119C124.355 152.764 118.966 161.873 113.71 162.118C104.879 162.256 106.097 152.488 98.6997 156.982C95.4872 158.86 92.0104 160.998 88.1992 163.47C78.9396 168.959 72.2901 169.255 68.0425 167.326C58.9849 166.364 55.834 156.211 57.9101 146.549C59.199 140.857 62.2358 135.357 66.8925 131.875C73.5986 126.855 82.8849 123.287 85.7413 114C87.8314 108.469 74.8124 101.276 78.0731 91.3562C80.0894 84.6979 87.0546 81.3483 87.4852 76.1087C87.9411 70.5594 88.5081 66.1409 88.7971 63.7294Z" stroke="white" stroke-opacity="0.75" stroke-width="0.85575"/>
<path d="M93.9191 70.5194C92.9161 59.1023 104.398 62.1842 106.842 68.6167C111.724 81.2926 117.119 83.7669 125.396 85.9232C128.877 87.8898 130.154 79.868 135.876 78.6543C141.598 77.4406 144.128 84.9095 147.441 81.5569C152.676 76.4767 157.409 75.0548 161.044 75.9664C164.487 76.4323 167.101 79.1834 168.185 82.9438C169.184 86.4984 168.809 90.934 166.441 95.1659C160.41 101.313 161.827 113.029 159.354 117.743C155.949 121.497 160.18 125.184 158.807 132.184C157.434 139.184 151.336 138.657 152.587 143.283C154.879 150.839 155.176 155.938 154.122 159.148C152.643 167.016 144.369 165.618 137.391 159.577C132.994 156.04 129.417 152.91 126.104 151.09C122.61 147.712 118.106 155.149 113.681 155.512C106.374 155.81 107.119 148.112 101.008 151.791C98.2394 153.375 95.2849 155.119 92.0878 157.091C84.0803 161.457 78.5473 161.045 75.277 158.88C68.0775 157.932 65.6236 149.624 67.3717 141.726C68.4909 137.009 71.0331 132.463 74.895 129.566C81.0469 124.946 88.8635 121.764 91.2109 113.188C92.8973 108.462 82.4336 102.361 84.9745 94.0763C86.5214 88.4038 92.0228 85.3824 92.391 80.8912C92.7764 76.1876 93.4502 72.4876 93.9191 70.5194Z" stroke="white" stroke-opacity="0.75" stroke-width="0.85575"/>
<path d="M98.8936 77.3108C98.437 68.6853 107.407 71.1112 109.361 76.2431C113.969 88.1422 119.06 89.6664 126.446 90.6385C129.224 92.0286 130.407 85.8141 134.943 84.7391C139.479 83.664 141.614 89.1371 144.283 86.6215C148.571 82.8116 152.401 81.9659 155.275 82.98C157.931 83.4839 159.939 85.7977 160.675 88.8691C161.348 91.7858 160.867 95.3636 158.673 98.6936C152.365 103.958 155.12 116.457 153.335 120.99C150.797 124.162 153.76 127.128 152.415 132.42C151.071 137.711 146.082 137.183 146.709 140.354C148.078 145.686 148.05 149.18 147.037 151.314C145.758 157.057 139.216 155.793 133.572 151.164C129.87 148.417 126.707 146.101 123.726 145.061C120.871 142.662 117.226 148.423 113.608 148.906C107.786 149.364 108.061 143.74 103.203 146.604L103.067 146.679C100.769 147.946 98.3646 149.271 95.8144 150.715C89.0144 153.956 84.5676 152.832 82.2577 150.429C76.8782 149.496 75.1086 143.034 76.5381 136.902C77.4939 133.161 79.5555 129.57 82.6436 127.258C88.2767 123.037 94.6666 120.241 96.5177 112.374C97.8095 108.454 89.8452 103.446 91.6795 96.7962C92.765 92.11 96.8317 89.4163 97.1395 85.6738C97.4565 81.8163 98.2414 78.8353 98.8936 77.3108Z" stroke="white" stroke-opacity="0.75" stroke-width="0.85575"/>
<path d="M104.002 84.4337C104.096 78.6377 110.484 80.3969 111.933 84.2053C116.232 95.2738 120.981 95.8416 127.42 95.6255C129.474 96.4331 130.554 92.0535 133.868 91.1219C137.183 90.1904 138.908 93.6437 140.911 91.9761C144.22 89.4531 147.117 89.1873 149.207 90.2992C151.056 90.8388 152.441 92.705 152.824 95.0737C153.165 97.3395 152.582 100.044 150.579 102.457C144.039 106.814 148.114 120.04 147.031 124.371C145.38 126.946 147.051 129.178 145.745 132.739C144.439 136.299 140.597 135.771 140.596 137.475C141.029 140.558 140.677 142.433 139.713 143.482C138.643 147.075 133.885 145.95 129.617 142.754C126.64 140.809 123.914 139.316 121.287 139.061C119.093 137.652 116.337 141.712 113.554 142.312C109.261 142.929 109.064 139.402 105.497 141.439C103.604 142.429 101.68 143.377 99.6963 144.342C94.156 146.443 90.8299 144.614 89.4989 141.984C85.9816 141.07 84.9103 136.482 86.0102 132.143C86.7953 129.394 88.3603 126.774 90.6508 125.059C95.7225 121.255 100.636 118.858 101.977 111.735C102.864 108.639 97.4614 104.746 98.5745 99.7608C99.19 96.0817 101.79 93.7279 102.035 90.7507C102.281 87.7565 103.171 85.5077 104.002 84.4337Z" stroke="white" stroke-opacity="0.75" stroke-width="0.85575"/>
<path d="M109.183 91.2326C109.825 88.2457 113.652 89.3437 114.6 91.8406C118.597 102.103 123.011 101.719 128.516 100.318C129.851 100.546 130.83 97.9869 132.934 97.1965C135.037 96.4062 136.355 97.8529 137.699 97.0274C140.037 95.7823 142.009 96.0939 143.321 97.3057C144.37 97.8819 145.137 99.3058 145.169 100.979C145.18 102.6 144.494 104.439 142.679 105.943C135.901 109.405 141.294 123.383 140.908 127.52C140.139 129.506 140.526 131.01 139.256 132.852C137.987 134.694 135.282 134.166 134.655 134.41C134.158 135.258 133.483 135.521 132.566 135.49C131.703 136.948 128.714 135.96 125.81 134.186C123.551 133.036 121.257 132.361 118.98 132.888C117.44 132.462 115.565 134.836 113.61 135.553C110.833 136.329 110.166 134.886 107.879 136.103C106.428 136.796 105.024 137.346 103.651 137.808C99.3577 138.777 97.1427 136.242 96.7842 133.38C95.1158 132.482 94.7382 129.754 95.5115 127.194C96.1277 125.429 97.2004 123.771 98.6999 122.647C103.219 119.251 106.67 117.246 107.504 110.852C107.989 108.57 105.13 105.78 105.527 102.445C105.675 99.7627 106.819 97.7429 107.001 95.5226C107.177 93.383 108.174 91.8597 109.183 91.2326Z" stroke="white" stroke-opacity="0.75" stroke-width="0.85575"/>
</svg>
