<svg width="102" height="81" viewBox="0 0 102 81" fill="none" xmlns="http://www.w3.org/2000/svg">
<circle cx="40" cy="41" r="40" fill="#000AF8"/>
<path d="M37.9111 42.3843C37.9111 35.3838 43.2567 29.5421 50.2296 28.9222L54.3201 28.5586C60.2122 28.0349 66.139 28.0349 72.031 28.5586L76.1154 28.9217C83.0918 29.5418 88.44 35.3865 88.44 42.3904V43.8516C88.44 48.9673 85.0785 53.4748 80.1753 54.9339V54.9339C75.9276 56.1979 71.3284 55.1834 68.0066 52.2497L65.626 50.1472C64.2273 48.9119 62.1266 48.9149 60.7314 50.1543L58.4124 52.2144C55.0862 55.1693 50.47 56.1971 46.2044 54.9327V54.9327C41.2854 53.4747 37.9111 48.9551 37.9111 43.8246V42.3843Z" stroke="white" stroke-width="2.5"/>
<path d="M73.6674 47.1414C73.2217 47.1414 72.8604 46.7801 72.8604 46.3344C72.8604 45.8887 73.2217 45.5273 73.6674 45.5273" stroke="white" stroke-width="2.5"/>
<path d="M73.668 47.1414C74.1137 47.1414 74.475 46.7801 74.475 46.3344C74.475 45.8887 74.1137 45.5273 73.668 45.5273" stroke="white" stroke-width="2.5"/>
<path d="M52.684 47.1414C52.2383 47.1414 51.877 46.7801 51.877 46.3344C51.877 45.8887 52.2383 45.5273 52.684 45.5273" stroke="white" stroke-width="2.5"/>
<path d="M52.6836 47.1414C53.1293 47.1414 53.4906 46.7801 53.4906 46.3344C53.4906 45.8887 53.1293 45.5273 52.6836 45.5273" stroke="white" stroke-width="2.5"/>
<path d="M47.0352 39.8762C47.8422 39.0692 50.1019 37.4551 52.6844 37.4551C55.2669 37.4551 57.7957 39.0692 58.3337 39.8762" stroke="white" stroke-width="2.5" stroke-linecap="round"/>
<path d="M79.3154 39.8762C78.5084 39.0692 76.2487 37.4551 73.6662 37.4551C71.0836 37.4551 68.5549 39.0692 68.0169 39.8762" stroke="white" stroke-width="2.5" stroke-linecap="round"/>
<path d="M56.7178 64.2813C57.2558 64.8193 59.3003 65.8953 63.1741 65.8953C67.0479 65.8953 69.0923 64.8193 69.6304 64.2812" stroke="white" stroke-width="2.5" stroke-linecap="round"/>
<path d="M39.3838 36.2492L39.1636 36.3593C35.3081 38.1856 30.1647 36.6937 28.8069 33.1977C33.0878 32.0918 35.3182 29.7553 37.8671 26.2505C32.1853 26.6563 28.7303 20.6901 27.8848 18.4072C36.7625 18.4072 40.3137 5.47095 58.3228 2.1736C72.7302 -0.464291 78.6996 10.7131 79.8833 16.6316C82.8426 15.617 89.2684 15.3634 91.2976 22.4656C93.8341 31.3434 91.044 37.6847 96.117 37.6847C95.1024 39.0375 92.2615 41.2358 89.0148 39.2066C88.7268 39.034 88.0697 38.5673 87.7451 38.0804" stroke="white" stroke-width="2.5" stroke-linecap="round" stroke-linejoin="round"/>
<path d="M71.1406 28.4836C71.0625 28.3377 70.8222 27.9684 70.7118 27.802C68.4742 24.5575 61.7505 20.1831 52.7556 28.641L52.6836 28.7114" stroke="white" stroke-width="2.5" stroke-linecap="round" stroke-linejoin="round"/>
<path d="M79.7753 16.5586L75.9154 20.0828L77.5937 24.1102L72.7271 27.6343L71.4736 28.515" stroke="white" stroke-width="2.5" stroke-linecap="round" stroke-linejoin="round"/>
<path d="M41.9873 52.6367L42.192 53.5972C44.5234 64.5222 47.0342 78.8088 63.175 78.8088C79.3157 78.8088 81.8265 64.5222 84.1579 53.5972L84.3626 52.6367" stroke="white" stroke-width="2.5" stroke-linecap="round"/>
<path d="M50.667 74.3203V78.7116" stroke="white" stroke-width="2.5" stroke-linecap="round"/>
<path d="M43.6824 60.3097H41.0166C34.0648 60.3097 29.9845 47.5898 37.7874 45.639L38.0363 45.5918" stroke="white" stroke-width="2.5" stroke-linecap="round"/>
<path d="M82.6682 60.3097H85.334C92.2858 60.3097 96.3661 47.5898 88.5632 45.639L88.3143 45.5918" stroke="white" stroke-width="2.5" stroke-linecap="round"/>
<path d="M75.6855 74.3203V78.7116" stroke="white" stroke-width="2.5" stroke-linecap="round"/>
</svg>
