<svg width="103" height="81" viewBox="0 0 103 81" fill="none" xmlns="http://www.w3.org/2000/svg">
<circle cx="40" cy="41" r="40" fill="#000AF8"/>
<path d="M45.8694 38.1387H53.529M26.1376 71.8337L24.5547 76.6363C24.1994 77.7145 25.0024 78.8247 26.1376 78.8247H99.8626C100.998 78.8247 101.801 77.7145 101.446 76.6363L99.8626 71.8337" stroke="white" stroke-width="2.5" stroke-linecap="round"/>
<path d="M72.5938 38.1387H80.0999" stroke="white" stroke-width="2.5" stroke-linecap="round"/>
<path d="M35.4816 44.9516C39.0371 44.9516 41.9193 42.0693 41.9193 38.5139C41.9193 34.9584 39.0371 32.0762 35.4816 32.0762C31.9262 32.0762 29.0439 34.9584 29.0439 38.5139C29.0439 42.0693 31.9262 44.9516 35.4816 44.9516Z" stroke="white" stroke-width="2.5" stroke-linecap="round" stroke-linejoin="round"/>
<path d="M90.3078 44.9516C93.8633 44.9516 96.7455 42.0693 96.7455 38.5139C96.7455 34.9584 93.8633 32.0762 90.3078 32.0762C86.7524 32.0762 83.8701 34.9584 83.8701 38.5139C83.8701 42.0693 86.7524 44.9516 90.3078 44.9516Z" stroke="white" stroke-width="2.5" stroke-linecap="round" stroke-linejoin="round"/>
<path d="M63.0007 17.5541C66.1843 17.5541 68.7651 14.9733 68.7651 11.7898C68.7651 8.60619 66.1843 6.02539 63.0007 6.02539C59.8171 6.02539 57.2363 8.60619 57.2363 11.7898C57.2363 14.9733 59.8171 17.5541 63.0007 17.5541Z" stroke="white" stroke-width="2.5" stroke-linecap="round" stroke-linejoin="round"/>
<path d="M46.7468 56.2171C46.7468 53.2292 45.5598 50.3637 43.4471 48.2509C41.3343 46.1381 38.4687 44.9512 35.4808 44.9512C32.4929 44.9512 29.6274 46.1381 27.5146 48.2509C25.4018 50.3637 24.2148 53.2292 24.2148 56.2171V61.0454H29.0431L30.6525 73.9208H40.3091L41.9185 61.0454H46.7468V56.2171Z" stroke="white" stroke-width="2.5" stroke-linecap="round" stroke-linejoin="round"/>
<path d="M101.733 56.2171C101.733 53.2292 100.546 50.3637 98.4334 48.2509C96.3206 46.1381 93.4551 44.9512 90.4671 44.9512C87.4792 44.9512 84.6137 46.1381 82.5009 48.2509C80.3881 50.3637 79.2012 53.2292 79.2012 56.2171V61.0454H84.0294L85.6389 73.9208H95.2954L96.9049 61.0454H101.733V56.2171Z" stroke="white" stroke-width="2.5" stroke-linecap="round" stroke-linejoin="round"/>
<path d="M73.0884 27.6404C73.0884 24.965 72.0256 22.3991 70.1338 20.5073C68.242 18.6155 65.6761 17.5527 63.0007 17.5527C60.3253 17.5527 57.7595 18.6155 55.8677 20.5073C53.9759 22.3991 52.9131 24.965 52.9131 27.6404V31.9637H57.2364L58.6775 43.4924H67.324L68.7651 31.9637H73.0884V27.6404Z" stroke="white" stroke-width="2.5" stroke-linecap="round" stroke-linejoin="round"/>
</svg>
