<svg width="97" height="83" viewBox="0 0 97 83" fill="none" xmlns="http://www.w3.org/2000/svg">
<circle cx="40" cy="40" r="40" fill="#000AF8"/>
<path d="M37.1855 25.6009C40.8908 24.8453 49.176 24 57 24C64.824 24 73.1092 24.8453 76.8145 25.6009C77.7274 25.7871 78.4867 26.3885 78.8902 27.2373C82.0531 33.8916 84.0891 47.4382 83.997 53.25C83.8985 59.4673 79.6801 63.0368 74.3552 63C67.713 62.9541 65.8027 53.2412 64.3904 49.9457H49.6102C48.1979 53.2412 46.2871 62.9542 39.6448 63C34.3199 63.0367 30.1015 59.4673 30.003 53.25C29.9109 47.4382 31.9469 33.8916 35.1098 27.2373C35.5133 26.3885 36.2726 25.7871 37.1855 25.6009Z" stroke="white" stroke-width="2.5" stroke-linecap="round" stroke-linejoin="round"/>
<path d="M71.4482 35V41.8949" stroke="white" stroke-width="2.5" stroke-linecap="round" stroke-linejoin="round"/>
<path d="M74.8945 38.4453L67.9997 38.4453" stroke="white" stroke-width="2.5" stroke-linecap="round" stroke-linejoin="round"/>
<path d="M43.3333 41.6667C41.4924 41.6667 40 40.1743 40 38.3333C40 36.4924 41.4924 35 43.3333 35" stroke="white" stroke-width="2.5"/>
<path d="M43.332 41.6667C45.173 41.6667 46.6654 40.1743 46.6654 38.3333C46.6654 36.4924 45.173 35 43.332 35" stroke="white" stroke-width="2.5"/>
</svg>
