<svg width="150" height="100" viewBox="0 0 101 100" fill="none" xmlns="http://www.w3.org/2000/svg">
<path d="M100.046 50C100.046 77.3355 77.7648 99.5 50.2732 99.5C22.7817 99.5 0.5 77.3355 0.5 50C0.5 22.6645 22.7817 0.5 50.2732 0.5C77.7648 0.5 100.046 22.6645 100.046 50Z" stroke="white"/>
<path d="M84.7459 50C84.7459 63.7197 80.9466 76.1185 74.8299 85.0733C68.7115 94.0306 60.3105 99.5 51.0929 99.5C41.8754 99.5 33.4744 94.0306 27.356 85.0733C21.2393 76.1185 17.4399 63.7197 17.4399 50C17.4399 36.2803 21.2393 23.8815 27.356 14.9267C33.4744 5.96937 41.8754 0.5 51.0929 0.5C60.3105 0.5 68.7115 5.96937 74.8299 14.9267C80.9466 23.8815 84.7459 36.2803 84.7459 50Z" stroke="white"/>
<path d="M62.888 50C62.888 63.7744 61.3009 76.2263 58.7457 85.2187C57.4671 89.7183 55.954 93.3233 54.2955 95.7919C52.625 98.2785 50.8869 99.5 49.1803 99.5C47.4737 99.5 45.7356 98.2785 44.0651 95.7919C42.4066 93.3233 40.8935 89.7183 39.6149 85.2187C37.0597 76.2263 35.4727 63.7744 35.4727 50C35.4727 36.2256 37.0597 23.7737 39.6149 14.7813C40.8935 10.2817 42.4066 6.67668 44.0651 4.20808C45.7356 1.72148 47.4737 0.5 49.1803 0.5C50.8869 0.5 52.625 1.72148 54.2955 4.20808C55.954 6.67668 57.4671 10.2817 58.7457 14.7813C61.3009 23.7737 62.888 36.2256 62.888 50Z" stroke="white"/>
<line x1="2.7323" y1="65.0742" x2="97.8143" y2="65.0742" stroke="white"/>
<line x1="2.7323" y1="33.9258" x2="97.8143" y2="33.9258" stroke="white"/>
</svg>
