<svg width="103" height="103" viewBox="0 0 103 103" fill="none" xmlns="http://www.w3.org/2000/svg">
<path d="M3.2782 0L0.391447 5L6.16495 5L3.2782 0ZM2.7782 4.5L2.77819 99.6494L3.77819 99.6494L3.7782 4.5L2.7782 4.5Z" fill="white"/>
<path d="M74.4083 29.5391C74.4083 29.2634 74.1841 29.0399 73.9075 29.0399L69.3996 29.0399C69.1229 29.0399 68.8987 29.2634 68.8987 29.5391C68.8987 29.8147 69.1229 30.0382 69.3996 30.0382L73.4066 30.0382L73.4066 34.0312C73.4066 34.3068 73.6308 34.5303 73.9075 34.5303C74.1841 34.5303 74.4083 34.3068 74.4083 34.0312L74.4083 29.5391ZM73.5533 29.1861L2.84262 99.6489L3.55097 100.355L74.2616 29.892L73.5533 29.1861Z" fill="white"/>
<path d="M103 99.9258L98 97.039L98 102.813L103 99.9258ZM98.5 99.4258L3 99.4258L3 100.426L98.5 100.426L98.5 99.4258Z" fill="white"/>
</svg>
