<svg width="100" height="100" viewBox="0 0 100 100" fill="none" xmlns="http://www.w3.org/2000/svg">
<line x1="50.5" y1="2.18557e-08" x2="50.5" y2="100" stroke="white"/>
<line x1="100" y1="49.7305" x2="-4.37114e-08" y2="49.7305" stroke="white"/>
<line x1="1.66786" y1="36.4389" x2="98.2604" y2="62.3208" stroke="white"/>
<line x1="98.2604" y1="37.4048" x2="1.66781" y2="63.2868" stroke="white"/>
<line x1="6.94873" y1="24.567" x2="93.5513" y2="74.567" stroke="white"/>
<line x1="93.5513" y1="25.433" x2="6.94873" y2="75.433" stroke="white"/>
<line x1="85.7089" y1="14.9981" x2="14.9982" y2="85.7088" stroke="white"/>
<line x1="14.9982" y1="14.291" x2="85.7089" y2="85.0017" stroke="white"/>
<line x1="25.433" y1="6.44922" x2="75.433" y2="93.0518" stroke="white"/>
<line x1="75.433" y1="6.94922" x2="25.433" y2="93.5518" stroke="white"/>
<line x1="37.542" y1="1.57372" x2="63.424" y2="98.1663" stroke="white"/>
<line x1="63.4239" y1="1.83253" x2="37.542" y2="98.4251" stroke="white"/>
<circle cx="2.69231" cy="2.69231" r="2.69231" transform="matrix(1 0 0 -1 46.9231 52.3086)" fill="white"/>
</svg>
