<svg width="116" height="95" viewBox="0 0 116 95" fill="none" xmlns="http://www.w3.org/2000/svg">
<rect x="0.32579" y="47.4703" width="21.2518" height="47.0797" stroke="white" stroke-width="0.651579"/>
<path d="M1.87832 46.8179L8.43132 44.4742H30.2118L21.8585 46.8179H1.87832Z" stroke="white" stroke-width="0.651579"/>
<path d="M22.1372 94.2711V47.3881L32.2532 44.4833V87.6445L22.1372 94.2711Z" stroke="white" stroke-width="0.651579"/>
<rect x="40.3258" y="34.0055" width="21.2518" height="60.5424" stroke="white" stroke-width="0.651579"/>
<path d="M41.4921 33.3542L48.4459 30.1656H70.7107L61.8466 33.3542H41.4921Z" stroke="white" stroke-width="0.651579"/>
<path d="M62.1371 94.1737V33.9061L72.2531 30.1819V85.6781L62.1371 94.1737Z" stroke="white" stroke-width="0.651579"/>
<rect x="81.3255" y="19.9274" width="22.3445" height="74.617" stroke="white" stroke-width="0.651579"/>
<path d="M82.2947 19.2764L89.8743 15.2047H113.592L103.93 19.2764H82.2947Z" stroke="white" stroke-width="0.651579"/>
<path d="M104.225 94.0932V19.8165L114.878 15.2219V83.6116L104.225 94.0932Z" stroke="white" stroke-width="0.651579"/>
<mask id="path-10-inside-1_704_9302" fill="white">
<path d="M17.1067 29.8698C16.7333 29.0831 15.9333 28.5365 15 28.5365H12V27.2031H20V28.5365H17.8267C18.1467 28.9231 18.3867 29.3765 18.5267 29.8698H20V31.2031H18.6533C18.4867 33.0698 16.9133 34.5365 15 34.5365H14.5133L19 39.2031H17.1533L12.6667 34.5365V33.2031H15C16.1733 33.2031 17.1467 32.3365 17.3067 31.2031H12V29.8698H17.1067Z"/>
</mask>
<path d="M17.1067 29.8698C16.7333 29.0831 15.9333 28.5365 15 28.5365H12V27.2031H20V28.5365H17.8267C18.1467 28.9231 18.3867 29.3765 18.5267 29.8698H20V31.2031H18.6533C18.4867 33.0698 16.9133 34.5365 15 34.5365H14.5133L19 39.2031H17.1533L12.6667 34.5365V33.2031H15C16.1733 33.2031 17.1467 32.3365 17.3067 31.2031H12V29.8698H17.1067Z" fill="white"/>
<path d="M17.1067 29.8698V30.5214H18.1371L17.6953 29.5904L17.1067 29.8698ZM12 28.5365H11.3484V29.188H12V28.5365ZM12 27.2031V26.5515H11.3484V27.2031H12ZM20 27.2031H20.6516V26.5515H20V27.2031ZM20 28.5365V29.188H20.6516V28.5365H20ZM17.8267 28.5365V27.8849H16.4417L17.3247 28.9519L17.8267 28.5365ZM18.5267 29.8698L17.8998 30.0477L18.0343 30.5214H18.5267V29.8698ZM20 29.8698H20.6516V29.2182H20V29.8698ZM20 31.2031V31.8547H20.6516V31.2031H20ZM18.6533 31.2031V30.5515H18.0573L18.0043 31.1452L18.6533 31.2031ZM14.5133 34.5365V33.8849H12.983L14.0436 34.988L14.5133 34.5365ZM19 39.2031V39.8547H20.5303L19.4697 38.7515L19 39.2031ZM17.1533 39.2031L16.6836 39.6547L16.8759 39.8547H17.1533V39.2031ZM12.6667 34.5365H12.0151V34.7989L12.197 34.988L12.6667 34.5365ZM12.6667 33.2031V32.5515H12.0151V33.2031H12.6667ZM17.3067 31.2031L17.9518 31.2942L18.0567 30.5515H17.3067V31.2031ZM12 31.2031H11.3484V31.8547H12V31.2031ZM12 29.8698V29.2182H11.3484V29.8698H12ZM17.6953 29.5904C17.2187 28.586 16.1954 27.8849 15 27.8849V29.188C15.6712 29.188 16.248 29.5802 16.518 30.1492L17.6953 29.5904ZM15 27.8849H12V29.188H15V27.8849ZM12.6516 28.5365V27.2031H11.3484V28.5365H12.6516ZM12 27.8547H20V26.5515H12V27.8547ZM19.3484 27.2031V28.5365H20.6516V27.2031H19.3484ZM20 27.8849H17.8267V29.188H20V27.8849ZM17.3247 28.9519C17.5873 29.2692 17.7846 29.6417 17.8998 30.0477L19.1535 29.6919C18.9887 29.1112 18.7061 28.5771 18.3286 28.121L17.3247 28.9519ZM18.5267 30.5214H20V29.2182H18.5267V30.5214ZM19.3484 29.8698V31.2031H20.6516V29.8698H19.3484ZM20 30.5515H18.6533V31.8547H20V30.5515ZM18.0043 31.1452C17.8675 32.6781 16.5736 33.8849 15 33.8849V35.188C17.2531 35.188 19.1059 33.4615 19.3023 31.2611L18.0043 31.1452ZM15 33.8849H14.5133V35.188H15V33.8849ZM14.0436 34.988L18.5303 39.6547L19.4697 38.7515L14.983 34.0849L14.0436 34.988ZM19 38.5515H17.1533V39.8547H19V38.5515ZM17.623 38.7515L13.1364 34.0849L12.197 34.988L16.6836 39.6547L17.623 38.7515ZM13.3182 34.5365V33.2031H12.0151V34.5365H13.3182ZM12.6667 33.8547H15V32.5515H12.6667V33.8547ZM15 33.8547C16.5014 33.8547 17.7469 32.7456 17.9518 31.2942L16.6615 31.112C16.5464 31.9273 15.8452 32.5515 15 32.5515V33.8547ZM17.3067 30.5515H12V31.8547H17.3067V30.5515ZM12.6516 31.2031V29.8698H11.3484V31.2031H12.6516ZM12 30.5214H17.1067V29.2182H12V30.5214Z" fill="white" mask="url(#path-10-inside-1_704_9302)"/>
<mask id="path-12-inside-2_704_9302" fill="white">
<path d="M58.1067 17.0026C57.7333 16.2159 56.9333 15.6693 56 15.6693H53V14.3359H61V15.6693H58.8267C59.1467 16.0559 59.3867 16.5093 59.5267 17.0026H61V18.3359H59.6533C59.4867 20.2026 57.9133 21.6693 56 21.6693H55.5133L60 26.3359H58.1533L53.6667 21.6693V20.3359H56C57.1733 20.3359 58.1467 19.4693 58.3067 18.3359H53V17.0026H58.1067Z"/>
</mask>
<path d="M58.1067 17.0026C57.7333 16.2159 56.9333 15.6693 56 15.6693H53V14.3359H61V15.6693H58.8267C59.1467 16.0559 59.3867 16.5093 59.5267 17.0026H61V18.3359H59.6533C59.4867 20.2026 57.9133 21.6693 56 21.6693H55.5133L60 26.3359H58.1533L53.6667 21.6693V20.3359H56C57.1733 20.3359 58.1467 19.4693 58.3067 18.3359H53V17.0026H58.1067Z" fill="white"/>
<path d="M58.1067 17.0026V17.6542H59.1371L58.6953 16.7232L58.1067 17.0026ZM53 15.6693H52.3484V16.3209H53V15.6693ZM53 14.3359V13.6844H52.3484V14.3359H53ZM61 14.3359H61.6516V13.6844H61V14.3359ZM61 15.6693V16.3209H61.6516V15.6693H61ZM58.8267 15.6693V15.0177H57.4417L58.3247 16.0847L58.8267 15.6693ZM59.5267 17.0026L58.8998 17.1805L59.0343 17.6542H59.5267V17.0026ZM61 17.0026H61.6516V16.351H61V17.0026ZM61 18.3359V18.9875H61.6516V18.3359H61ZM59.6533 18.3359V17.6844H59.0573L59.0043 18.278L59.6533 18.3359ZM55.5133 21.6693V21.0177H53.983L55.0436 22.1209L55.5133 21.6693ZM60 26.3359V26.9875H61.5303L60.4697 25.8843L60 26.3359ZM58.1533 26.3359L57.6836 26.7875L57.8759 26.9875H58.1533V26.3359ZM53.6667 21.6693H53.0151V21.9317L53.197 22.1209L53.6667 21.6693ZM53.6667 20.3359V19.6844H53.0151V20.3359H53.6667ZM58.3067 18.3359L58.9518 18.427L59.0567 17.6844H58.3067V18.3359ZM53 18.3359H52.3484V18.9875H53V18.3359ZM53 17.0026V16.351H52.3484V17.0026H53ZM58.6953 16.7232C58.2187 15.7189 57.1954 15.0177 56 15.0177V16.3209C56.6712 16.3209 57.248 16.713 57.518 17.282L58.6953 16.7232ZM56 15.0177H53V16.3209H56V15.0177ZM53.6516 15.6693V14.3359H52.3484V15.6693H53.6516ZM53 14.9875H61V13.6844H53V14.9875ZM60.3484 14.3359V15.6693H61.6516V14.3359H60.3484ZM61 15.0177H58.8267V16.3209H61V15.0177ZM58.3247 16.0847C58.5873 16.402 58.7846 16.7745 58.8998 17.1805L60.1535 16.8247C59.9887 16.2441 59.7061 15.7099 59.3286 15.2538L58.3247 16.0847ZM59.5267 17.6542H61V16.351H59.5267V17.6542ZM60.3484 17.0026V18.3359H61.6516V17.0026H60.3484ZM61 17.6844H59.6533V18.9875H61V17.6844ZM59.0043 18.278C58.8675 19.8109 57.5736 21.0177 56 21.0177V22.3209C58.2531 22.3209 60.1059 20.5943 60.3023 18.3939L59.0043 18.278ZM56 21.0177H55.5133V22.3209H56V21.0177ZM55.0436 22.1209L59.5303 26.7875L60.4697 25.8843L55.983 21.2177L55.0436 22.1209ZM60 25.6844H58.1533V26.9875H60V25.6844ZM58.623 25.8843L54.1364 21.2177L53.197 22.1209L57.6836 26.7875L58.623 25.8843ZM54.3182 21.6693V20.3359H53.0151V21.6693H54.3182ZM53.6667 20.9875H56V19.6844H53.6667V20.9875ZM56 20.9875C57.5014 20.9875 58.7469 19.8784 58.9518 18.427L57.6615 18.2449C57.5464 19.0601 56.8452 19.6844 56 19.6844V20.9875ZM58.3067 17.6844H53V18.9875H58.3067V17.6844ZM53.6516 18.3359V17.0026H52.3484V18.3359H53.6516ZM53 17.6542H58.1067V16.351H53V17.6542Z" fill="white" mask="url(#path-12-inside-2_704_9302)"/>
<mask id="path-14-inside-3_704_9302" fill="white">
<path d="M99.1067 2.66667C98.7333 1.88 97.9333 1.33333 97 1.33333H94V0H102V1.33333H99.8267C100.147 1.72 100.387 2.17333 100.527 2.66667H102V4H100.653C100.487 5.86667 98.9133 7.33333 97 7.33333H96.5133L101 12H99.1533L94.6667 7.33333V6H97C98.1733 6 99.1467 5.13333 99.3067 4H94V2.66667H99.1067Z"/>
</mask>
<path d="M99.1067 2.66667C98.7333 1.88 97.9333 1.33333 97 1.33333H94V0H102V1.33333H99.8267C100.147 1.72 100.387 2.17333 100.527 2.66667H102V4H100.653C100.487 5.86667 98.9133 7.33333 97 7.33333H96.5133L101 12H99.1533L94.6667 7.33333V6H97C98.1733 6 99.1467 5.13333 99.3067 4H94V2.66667H99.1067Z" fill="white"/>
<path d="M99.1067 2.66667V3.31825H100.137L99.6953 2.38731L99.1067 2.66667ZM94 1.33333H93.3484V1.98491H94V1.33333ZM94 0V-0.651579H93.3484V0H94ZM102 0H102.652V-0.651579H102V0ZM102 1.33333V1.98491H102.652V1.33333H102ZM99.8267 1.33333V0.681754H98.4417L99.3247 1.74876L99.8267 1.33333ZM100.527 2.66667L99.8998 2.84455L100.034 3.31825H100.527V2.66667ZM102 2.66667H102.652V2.01509H102V2.66667ZM102 4V4.65158H102.652V4H102ZM100.653 4V3.34842H100.057L100.004 3.94205L100.653 4ZM96.5133 7.33333V6.68175H94.983L96.0436 7.78492L96.5133 7.33333ZM101 12V12.6516H102.53L101.47 11.5484L101 12ZM99.1533 12L98.6836 12.4516L98.8759 12.6516H99.1533V12ZM94.6667 7.33333H94.0151V7.59575L94.197 7.78492L94.6667 7.33333ZM94.6667 6V5.34842H94.0151V6H94.6667ZM99.3067 4L99.9518 4.09108L100.057 3.34842H99.3067V4ZM94 4H93.3484V4.65158H94V4ZM94 2.66667V2.01509H93.3484V2.66667H94ZM99.6953 2.38731C99.2187 1.38292 98.1954 0.681754 97 0.681754V1.98491C97.6712 1.98491 98.248 2.37708 98.518 2.94603L99.6953 2.38731ZM97 0.681754H94V1.98491H97V0.681754ZM94.6516 1.33333V0H93.3484V1.33333H94.6516ZM94 0.651579H102V-0.651579H94V0.651579ZM101.348 0V1.33333H102.652V0H101.348ZM102 0.681754H99.8267V1.98491H102V0.681754ZM99.3247 1.74876C99.5873 2.06604 99.7846 2.43854 99.8998 2.84455L101.153 2.48878C100.989 1.90812 100.706 1.37396 100.329 0.917908L99.3247 1.74876ZM100.527 3.31825H102V2.01509H100.527V3.31825ZM101.348 2.66667V4H102.652V2.66667H101.348ZM102 3.34842H100.653V4.65158H102V3.34842ZM100.004 3.94205C99.8675 5.475 98.5736 6.68175 97 6.68175V7.98491C99.2531 7.98491 101.106 6.25833 101.302 4.05795L100.004 3.94205ZM97 6.68175H96.5133V7.98491H97V6.68175ZM96.0436 7.78492L100.53 12.4516L101.47 11.5484L96.983 6.88175L96.0436 7.78492ZM101 11.3484H99.1533V12.6516H101V11.3484ZM99.623 11.5484L95.1364 6.88175L94.197 7.78492L98.6836 12.4516L99.623 11.5484ZM95.3182 7.33333V6H94.0151V7.33333H95.3182ZM94.6667 6.65158H97V5.34842H94.6667V6.65158ZM97 6.65158C98.5014 6.65158 99.7469 5.54249 99.9518 4.09108L98.6615 3.90892C98.5464 4.72417 97.8452 5.34842 97 5.34842V6.65158ZM99.3067 3.34842H94V4.65158H99.3067V3.34842ZM94.6516 4V2.66667H93.3484V4H94.6516ZM94 3.31825H99.1067V2.01509H94V3.31825Z" fill="white" mask="url(#path-14-inside-3_704_9302)"/>
</svg>
