<svg width="150" height="104" viewBox="0 0 104 104" fill="none" xmlns="http://www.w3.org/2000/svg">
<g filter="url(#filter0_f_704_9288)">
<circle cx="52" cy="52" r="12" fill="white"/>
</g>
<ellipse cx="52" cy="51.6364" rx="12" ry="11.6364" fill="white"/>
<circle cx="1.69231" cy="1.69231" r="1.19231" transform="matrix(-1 0 0 1 53.6924 41)" stroke="white"/>
<circle cx="1.69231" cy="1.69231" r="1.19231" transform="matrix(-1 0 0 1 47.3462 43.9609)" stroke="white"/>
<circle cx="1.69231" cy="1.69231" r="1.19231" transform="matrix(-1 0 0 1 47.3462 56.6523)" stroke="white"/>
<circle cx="1.69231" cy="1.69231" r="1.19231" transform="matrix(-1 0 0 1 60.0386 56.6523)" stroke="white"/>
<circle cx="1.69231" cy="1.69231" r="1.19231" transform="matrix(-1 0 0 1 60.0386 43.9609)" stroke="white"/>
<circle cx="1.69231" cy="1.69231" r="1.19231" transform="matrix(-1 0 0 1 44.3845 50.3086)" stroke="white"/>
<circle cx="1.69231" cy="1.69231" r="1.19231" transform="matrix(-1 0 0 1 53.6924 59.6172)" stroke="white"/>
<circle cx="1.69231" cy="1.69231" r="1.19231" transform="matrix(-1 0 0 1 63 50.3086)" stroke="white"/>
<defs>
<filter id="filter0_f_704_9288" x="36" y="36" width="32" height="32" filterUnits="userSpaceOnUse" color-interpolation-filters="sRGB">
<feFlood flood-opacity="0" result="BackgroundImageFix"/>
<feBlend mode="normal" in="SourceGraphic" in2="BackgroundImageFix" result="shape"/>
<feGaussianBlur stdDeviation="2" result="effect1_foregroundBlur_704_9288"/>
</filter>
</defs>
</svg>
