<svg width="20" height="20" viewBox="0 0 20 20" fill="none" xmlns="http://www.w3.org/2000/svg">
<path d="M3.94119 5.88238C5.01328 5.88238 5.88238 5.01328 5.88238 3.94119C5.88238 2.8691 5.01328 2 3.94119 2C2.8691 2 2 2.8691 2 3.94119C2 5.01328 2.8691 5.88238 3.94119 5.88238Z" fill="white"/>
<path d="M7.66018 7.31697H10.8774V8.79078C10.8774 8.79078 11.7504 7.04472 14.1257 7.04472C16.2447 7.04472 18 8.08856 18 11.2703V17.9796H14.6661V12.0833C14.6661 10.2064 13.6641 9.99992 12.9005 9.99992C11.3158 9.99992 11.0445 11.3668 11.0445 12.3281V17.9796H7.66018V7.31697Z" fill="white"/>
<path d="M2.24901 7.31698H5.63338V17.9796H2.24901V7.31698Z" fill="white"/>
</svg>
