<svg width="150" height="74" viewBox="0 0 75 74" fill="none" xmlns="http://www.w3.org/2000/svg">
<path fill-rule="evenodd" clip-rule="evenodd" d="M49.5557 71.3282L53.5135 69.695L42.0389 43.5264L61.9228 64.1056L64.9404 61.088L44.0652 41.1021L70.5305 52.678L72.2618 48.7202L45.3013 38.2823L74.1925 38.7767V34.5222L45.3013 35.1155L72.1638 24.5787L70.5314 20.6711L44.0652 32.2965L64.9404 12.2644L61.9228 9.19733L42.0389 29.8722L53.5127 3.65252L49.5557 1.92124L39.0189 28.7343L39.6114 -0.0078125H35.3569L35.9016 28.7343L25.4629 2.02012L21.5059 3.65252L32.9343 29.9711L13.0958 9.19328L10.028 12.2644L30.707 32.2033L4.48724 20.6703L2.75596 24.5787L29.6184 35.1155L0.826904 34.5222V38.7767L29.6184 38.2823L2.85484 48.7202L4.48724 52.678L30.707 41.2002L10.028 61.088L13.095 64.1056L32.9335 43.4267L21.5051 69.695L25.4629 71.4271L35.9016 44.5646L35.3569 73.3562H39.6114L39.0181 44.5646L49.5557 71.3282Z" fill="white"/>
</svg>
