<svg width="380" height="6" viewBox="0 0 380 6" fill="none" xmlns="http://www.w3.org/2000/svg">
<path d="M379.175 5.6025C376.427 5.64942 373.81 5.78122 371.179 5.72533C344.299 5.14829 317.423 4.33138 290.571 3.99855C258.689 3.60317 226.835 3.52696 195.013 3.48883C170.24 3.46044 145.498 3.6088 120.82 3.83707C91.2924 4.11109 61.8607 4.5818 32.3488 4.91234C24.5363 5.00103 16.6102 4.96392 8.75225 4.82685C1.5229 4.70133 -2.15787 3.28398 1.40436 2.14985C2.25335 1.8768 4.19368 1.65007 5.69963 1.64779C24.9786 1.64634 44.3047 1.78072 63.5355 1.69966C84.2392 1.61195 104.848 1.30131 125.52 1.1343C146.788 0.963251 168.024 0.705401 189.354 0.741694C221.954 0.797876 254.602 0.896187 287.261 1.31711C313.897 1.66098 340.575 2.50421 367.222 3.13321C373.243 3.27398 377.8 3.84519 379.125 5.59784L379.175 5.6025Z" fill="#FF6915"/>
</svg>
