<svg width="102" height="92" viewBox="0 0 102 92" fill="none" xmlns="http://www.w3.org/2000/svg">
<circle cx="40" cy="40" r="40" fill="#000AF8"/>
<path d="M87.2956 58.8118C90.9775 58.8118 93.9622 55.8271 93.9622 52.1452C93.9622 48.4633 90.9775 45.4785 87.2956 45.4785C83.6137 45.4785 80.6289 48.4633 80.6289 52.1452C80.6289 55.8271 83.6137 58.8118 87.2956 58.8118Z" stroke="white" stroke-width="2.5" stroke-linecap="round" stroke-linejoin="round"/>
<path d="M98.9613 70.4792C98.9613 67.385 97.7321 64.4175 95.5442 62.2296C93.3562 60.0417 90.3888 58.8125 87.2946 58.8125C84.2004 58.8125 81.2329 60.0417 79.045 62.2296C76.8571 64.4175 75.6279 67.385 75.6279 70.4792V75.4792H80.6279L82.2946 88.8125H92.2946L93.9613 75.4792H98.9613V70.4792Z" stroke="white" stroke-width="2.5" stroke-linecap="round" stroke-linejoin="round"/>
<path d="M40.8115 33.6074C43.4597 33.6074 45.6064 31.4607 45.6064 28.8125C45.6064 26.1643 43.4597 24.0176 40.8115 24.0176C38.1634 24.0176 36.0166 26.1643 36.0166 28.8125C36.0166 31.4607 38.1634 33.6074 40.8115 33.6074Z" stroke="white" stroke-width="2.5" stroke-linecap="round" stroke-linejoin="round"/>
<path d="M40.8115 60.2734C43.4597 60.2734 45.6064 58.1267 45.6064 55.4785C45.6064 52.8304 43.4597 50.6836 40.8115 50.6836C38.1634 50.6836 36.0166 52.8304 36.0166 55.4785C36.0166 58.1267 38.1634 60.2734 40.8115 60.2734Z" stroke="white" stroke-width="2.5" stroke-linecap="round" stroke-linejoin="round"/>
<path d="M73.7246 33.6074C76.3728 33.6074 78.5195 31.4607 78.5195 28.8125C78.5195 26.1643 76.3728 24.0176 73.7246 24.0176C71.0764 24.0176 68.9297 26.1643 68.9297 28.8125C68.9297 31.4607 71.0764 33.6074 73.7246 33.6074Z" stroke="white" stroke-width="2.5" stroke-linecap="round" stroke-linejoin="round"/>
<path d="M49.2029 41.9985C49.2029 39.7731 48.3188 37.6388 46.7452 36.0651C45.1715 34.4915 43.0372 33.6074 40.8118 33.6074C38.5863 33.6074 36.4522 34.4915 34.8786 36.0651C33.305 37.6388 32.4209 39.7731 32.4209 41.9985" stroke="white" stroke-width="2.5" stroke-linecap="round" stroke-linejoin="round"/>
<path d="M49.2029 68.6646C49.2029 66.4391 48.3188 64.3048 46.7452 62.7311C45.1715 61.1575 43.0372 60.2734 40.8118 60.2734C38.5863 60.2734 36.4522 61.1575 34.8786 62.7311C33.305 64.3048 32.4209 66.4391 32.4209 68.6646" stroke="white" stroke-width="2.5" stroke-linecap="round" stroke-linejoin="round"/>
<path d="M79.6583 36.0651C78.0846 34.4915 75.9503 33.6074 73.7249 33.6074C71.4994 33.6074 69.3653 34.4915 67.7917 36.0651C66.218 37.6388 65.334 39.7731 65.334 41.9985" stroke="white" stroke-width="2.5" stroke-linecap="round" stroke-linejoin="round"/>
<path d="M88.6673 31.9987V18.6654C88.6673 16.8244 87.1749 15.332 85.334 15.332H28.6673C26.8264 15.332 25.334 16.8244 25.334 18.6654V65.332C25.334 67.173 26.8264 68.6654 28.6673 68.6654H65.334" stroke="white" stroke-width="2.5" stroke-linecap="round"/>
<path d="M57.001 15.332V68.6654" stroke="white" stroke-width="2.5"/>
<path d="M25.334 42H72.0006" stroke="white" stroke-width="2.5" stroke-linecap="round"/>
</svg>
