<?xml version="1.0" standalone="no"?>
<!DOCTYPE svg PUBLIC "-//W3C//DTD SVG 20010904//EN"
 "http://www.w3.org/TR/2001/REC-SVG-20010904/DTD/svg10.dtd">
<svg version="1.0" xmlns="http://www.w3.org/2000/svg"
 width="1134.000000pt" height="1134.000000pt" viewBox="0 0 1134.000000 1134.000000"
 preserveAspectRatio="xMidYMid meet">
<metadata>
Created by potrace 1.14, written by Peter Selinger 2001-2017
</metadata>
<g transform="translate(0.000000,1134.000000) scale(0.100000,-0.100000)"
fill="#000000" stroke="none">
<path d="M7862 9750 c-35 -8 -92 -55 -92 -76 0 -7 -30 -34 -67 -60 -38 -27
-248 -193 -468 -369 -442 -354 -598 -475 -755 -585 -121 -85 -237 -176 -435
-340 l-141 -117 -182 69 c-174 65 -184 67 -215 54 -19 -7 -49 -35 -68 -62 -20
-27 -70 -89 -112 -137 -75 -85 -77 -89 -77 -139 0 -28 6 -88 14 -132 8 -45 17
-102 20 -127 l5 -47 -227 -189 c-427 -356 -772 -623 -1157 -893 -559 -393
-781 -559 -990 -740 -636 -550 -1030 -1220 -1184 -2013 -66 -338 -86 -637 -77
-1122 11 -542 34 -903 77 -1215 19 -136 64 -379 72 -386 2 -2 229 -9 504 -15
l501 -10 179 70 c98 39 266 104 373 145 l195 73 7 144 c10 232 64 489 139 671
133 324 450 637 821 812 98 47 306 122 313 114 26 -30 325 -594 444 -839 239
-490 351 -794 397 -1076 l29 -173 90 0 c49 0 411 -7 804 -14 392 -8 720 -12
727 -9 9 3 1 20 -27 56 -124 157 -301 521 -397 817 -103 320 -142 553 -149
905 -6 266 7 453 47 687 11 61 19 112 17 113 -1 1 -49 10 -107 19 -58 10 -172
36 -255 57 -1186 303 -2045 1137 -2145 2081 -15 143 -12 514 5 662 23 197 77
403 137 519 31 62 30 38 -2 -57 -40 -118 -67 -249 -81 -387 -14 -150 -14 -467
0 -599 49 -436 213 -840 469 -1153 82 -100 283 -291 378 -359 99 -71 337 -209
507 -294 310 -156 663 -274 1000 -334 66 -12 120 -20 121 -18 1 2 26 99 54
217 29 118 91 345 137 506 91 318 127 472 149 646 52 407 19 723 -123 1198
-57 186 -73 271 -74 381 -1 83 3 103 26 153 18 40 36 63 61 78 50 29 190 200
730 889 153 195 286 362 294 370 19 19 -64 -137 -141 -265 -203 -334 -726
-1110 -775 -1149 -76 -60 -68 -207 24 -402 90 -192 151 -503 161 -819 12 -374
-36 -689 -163 -1072 -29 -90 -69 -225 -88 -300 -45 -182 -99 -443 -93 -449 26
-27 438 -29 564 -3 l61 12 7 81 c30 382 55 562 104 741 10 39 25 129 32 200
18 177 17 801 -2 1000 -17 187 -16 304 5 420 41 216 84 319 224 528 124 185
299 462 561 885 119 194 186 313 197 350 21 71 15 319 -11 457 -9 50 -16 106
-14 125 13 146 -8 245 -87 410 -64 133 -145 258 -274 420 -256 323 -404 438
-528 410z m208 -208 c156 -95 410 -376 461 -511 52 -139 63 -344 24 -469 -16
-54 -16 -54 25 -239 43 -194 68 -348 58 -359 -17 -17 -213 146 -285 238 -90
113 -113 178 -227 633 -58 231 -176 738 -176 754 0 15 50 -5 120 -47z m-826
-985 c30 -35 48 -47 69 -47 25 0 16 -13 -128 -187 -164 -198 -215 -243 -322
-283 -33 -12 -78 -20 -117 -20 -66 0 -104 17 -168 77 l-27 26 56 50 c43 40 65
72 100 144 96 201 235 297 422 290 l74 -3 41 -47z m-2627 -5054 c45 -76 91
-154 102 -174 l21 -36 -77 -28 c-98 -34 -277 -119 -395 -186 -209 -120 -388
-298 -531 -529 -153 -248 -269 -619 -299 -960 l-11 -126 -313 -126 -312 -126
-8 107 c-9 136 1 376 22 511 81 534 337 981 752 1312 163 130 420 282 622 369
71 30 329 128 340 129 3 0 42 -62 87 -137z"/>
<path d="M6926 8420 c-41 -37 -94 -159 -73 -172 39 -25 122 9 193 78 27 27 57
54 68 59 16 9 12 14 -35 38 -72 36 -109 35 -153 -3z"/>
<path d="M7555 3593 c-48 -10 -148 -16 -320 -18 l-250 -3 -12 -63 c-80 -428
-92 -768 -37 -1064 43 -233 191 -680 299 -900 66 -135 232 -404 269 -434 12
-10 63 12 273 119 142 72 262 135 267 140 14 14 -20 91 -59 137 -37 43 -137
100 -225 128 -72 23 -122 72 -165 160 -53 107 -67 172 -72 340 -4 118 -1 181
16 295 34 243 50 412 76 805 8 127 17 263 21 303 3 39 2 71 -3 71 -4 -1 -39
-8 -78 -16z"/>
</g>
</svg>
